<svg version="1.1" xmlns="http://www.w3.org/2000/svg" viewBox="0 0 3385.0297028786545 1149.9764479330997" width="3385.0297028786545" height="1149.9764479330997">
  <!-- svg-source:excalidraw -->
  
  <defs>
    <style class="style-fonts">
      @font-face {
        font-family: "Virgil";
        src: url("https://excalidraw.com/Virgil.woff2");
      }
      @font-face {
        font-family: "Cascadia";
        src: url("https://excalidraw.com/Cascadia.woff2");
      }
    </style>
    
  </defs>
  <rect x="0" y="0" width="3385.0297028786545" height="1149.9764479330997" fill="#ffffff"></rect><g transform="translate(145.37035536004055 134.87511178953758) rotate(0 123.04687500000006 10.5)"><text x="0" y="0" font-family="Cascadia, Segoe UI Emoji" font-size="17.500000000000018px" fill="#1e1e1e" text-anchor="start" style="white-space: pre;" direction="ltr" dominant-baseline="text-before-edge">Request Voucher generate</text></g><g stroke-linecap="round"><g transform="translate(234.1024649710647 163.87511178953758) rotate(0 6.975385483667651 64.85755308532946)"><path d="M-0.3 -0.85 C2.16 20.86, 11.83 107.59, 14.25 129.61 M1.75 1.31 C4.17 23.19, 11.73 109.25, 13.75 130.57" stroke="#1e1e1e" stroke-width="1" fill="none"></path></g><g transform="translate(234.1024649710647 163.87511178953758) rotate(0 6.975385483667651 64.85755308532946)"><path d="M-0.45 104.85 C2.26 111.73, 8.29 119.05, 12.62 128.6 M1.37 102.65 C6.01 112.98, 8.81 122.54, 14.68 130.66" stroke="#1e1e1e" stroke-width="1" fill="none"></path></g><g transform="translate(234.1024649710647 163.87511178953758) rotate(0 6.975385483667651 64.85755308532946)"><path d="M19.98 102.98 C17.46 110.29, 18.26 118.09, 12.62 128.6 M21.81 100.79 C19.48 111.59, 15.32 121.79, 14.68 130.66" stroke="#1e1e1e" stroke-width="1" fill="none"></path></g></g><mask></mask><g stroke-linecap="round" transform="translate(730.7603987054479 436.12541076596835) rotate(0 76.5 63.50000000000003)"><path d="M96.25 16 M96.25 16 C105.56 25.54, 113.3 30.75, 133.75 48 M96.25 16 C112.55 29.04, 124.88 42.56, 133.75 48 M133.75 48 C150.4 65.7, 154.95 62.48, 133.75 80 M133.75 48 C155.27 67.98, 154.3 61.81, 133.75 80 M133.75 80 C125.27 85.2, 110.87 100, 96.25 111 M133.75 80 C119.9 88.46, 109.23 98.35, 96.25 111 M96.25 111 C77.86 124.91, 78.46 128.38, 57.75 111 M96.25 111 C75.1 125.49, 75.76 123.28, 57.75 111 M57.75 111 C48.55 102.62, 33.04 93.99, 19.25 80 M57.75 111 C49.44 104.39, 40.65 95.93, 19.25 80 M19.25 80 C3.42 60.54, -2.68 67.85, 19.25 48 M19.25 80 C4.29 62.06, -3.85 63.33, 19.25 48 M19.25 48 C27.15 39.8, 42.7 29, 57.75 16 M19.25 48 C35.31 35.79, 48.61 22.8, 57.75 16 M57.75 16 C77.71 -1.14, 73.79 3.23, 96.25 16 M57.75 16 C77.74 2.38, 76.71 2.99, 96.25 16" stroke="#1e1e1e" stroke-width="1" fill="none"></path></g><g transform="translate(793.6187971429479 488.3754107659684) rotate(0 13.8916015625 11.5)"><text x="13.8916015625" y="0" font-family="Helvetica, Segoe UI Emoji" font-size="20px" fill="#1e1e1e" text-anchor="middle" style="white-space: pre;" direction="ltr" dominant-baseline="text-before-edge">DB</text></g><g stroke-linecap="round"><g transform="translate(750.8217508109219 469.3129132446397) rotate(0 -186.77841533626946 -53.36386991786361)"><path d="M-1.16 -0.46 C-63.64 -18.05, -311.93 -87.03, -373.99 -104.65 M0.43 -1.75 C-61.74 -19.74, -309.21 -89.03, -371.69 -106.27" stroke="#1e1e1e" stroke-width="1" fill="none"></path></g><g transform="translate(750.8217508109219 469.3129132446397) rotate(0 -186.77841533626946 -53.36386991786361)"><path d="M-342.55 -109.91 C-351.3 -108.54, -365.04 -106.84, -372.84 -107.46 M-342.61 -107.61 C-350.51 -108.38, -361.96 -107.31, -372.29 -105.7" stroke="#1e1e1e" stroke-width="1" fill="none"></path></g><g transform="translate(750.8217508109219 469.3129132446397) rotate(0 -186.77841533626946 -53.36386991786361)"><path d="M-348.05 -90.15 C-354.9 -96.09, -366.59 -101.76, -372.84 -107.46 M-348.12 -87.84 C-354.07 -94.99, -363.75 -100.31, -372.29 -105.7" stroke="#1e1e1e" stroke-width="1" fill="none"></path></g></g><mask></mask><g stroke-linecap="round" transform="translate(80.5 331.5749027680782) rotate(0 158.5 59.5)"><path d="M29.75 0 M29.75 0 C85.24 -2.77, 143.59 -2.65, 287.25 0 M29.75 0 C97.82 3.47, 163.92 3.48, 287.25 0 M287.25 0 C310.55 1.13, 315.1 8.72, 317 29.75 M287.25 0 C306.77 -0.1, 318.94 6.28, 317 29.75 M317 29.75 C314.05 41.18, 315.19 56.08, 317 89.25 M317 29.75 C315.5 47.7, 317.24 63.36, 317 89.25 M317 89.25 C315.69 108.01, 303.85 117.9, 287.25 119 M317 89.25 C316.74 104.72, 308.53 119.93, 287.25 119 M287.25 119 C236.86 115.62, 183.06 117.68, 29.75 119 M287.25 119 C188.8 121.46, 94.68 124.04, 29.75 119 M29.75 119 C8.23 115.66, -0.58 108.13, 0 89.25 M29.75 119 C6.81 115.18, -3.65 109.08, 0 89.25 M0 89.25 C-3.16 70.62, 3.04 48.29, 0 29.75 M0 89.25 C0.14 68.92, 2.32 52.12, 0 29.75 M0 29.75 C2.07 9.66, 12.51 -0.84, 29.75 0 M0 29.75 C0.02 13.81, 11.82 2.57, 29.75 0" stroke="#1e1e1e" stroke-width="1" fill="none"></path></g><g transform="translate(166.5 355.19801387918926) rotate(0 71.96875 8.188444444444457)"><text x="0" y="0" font-family="Cascadia, Segoe UI Emoji" font-size="13.647407407407407px" fill="#1e1e1e" text-anchor="start" style="white-space: pre;" direction="ltr" dominant-baseline="text-before-edge">Get Customers list</text></g><g transform="translate(145.53125 403.5567739302748) rotate(0 110.44921875 7.603286641123873)"><text x="0" y="0" font-family="Cascadia, Segoe UI Emoji" font-size="12.672144401873132px" fill="#1e1e1e" text-anchor="start" style="white-space: pre;" direction="ltr" dominant-baseline="text-before-edge">Despatch a job queue per user</text></g><g stroke-linecap="round" transform="translate(15.5 563.5749027680781) rotate(0 246.5 63.5)"><path d="M31.75 0 M31.75 0 C131.89 -1.28, 231.51 -1.77, 461.25 0 M461.25 0 C481.6 -0.65, 494.14 9.11, 493 31.75 M493 31.75 C494.56 46.68, 492.23 62.62, 493 95.25 M493 95.25 C491.66 115.35, 481.2 126.78, 461.25 127 M461.25 127 C342.04 127.67, 223.16 129.14, 31.75 127 M31.75 127 C8.86 128.34, -1.96 117.91, 0 95.25 M0 95.25 C-2.28 73.09, 1.2 50.23, 0 31.75 M0 31.75 C-0.49 8.68, 12.3 -1.25, 31.75 0" stroke="#1e1e1e" stroke-width="1.5" fill="none" stroke-dasharray="8 9"></path></g><g transform="translate(51.80798613669958 577.0552882841191) rotate(0 29.296875 12)"><text x="0" y="0" font-family="Cascadia, Segoe UI Emoji" font-size="20px" fill="#1e1e1e" text-anchor="start" style="white-space: pre;" direction="ltr" dominant-baseline="text-before-edge">Queue</text></g><g transform="translate(55.25 605.3184699032133) rotate(0 184.27734375 10.256432432432462)"><text x="0" y="0" font-family="Cascadia, Segoe UI Emoji" font-size="17.09405405405407px" fill="#1e1e1e" text-anchor="start" style="white-space: pre;" direction="ltr" dominant-baseline="text-before-edge">Handle Voucher generation and assign </text></g><g transform="translate(64.203125 646.7117092630438) rotate(0 176.12109375 8.059812968733468)"><text x="0" y="0" font-family="Cascadia, Segoe UI Emoji" font-size="13.433021614555754px" fill="#1e1e1e" text-anchor="start" style="white-space: pre;" direction="ltr" dominant-baseline="text-before-edge">Despatch a job for sending customer's voucher</text></g><g mask="url(#mask-sVo22Iy-tuXdN33sxPpmD)" stroke-linecap="round"><g transform="translate(435.8223462388223 610.7065168087802) rotate(0 168.56076074146955 -26.637457712966466)"><path d="M-0.28 1.12 C56.02 -7.84, 281.21 -45.41, 337.4 -54.39 M1.78 0.66 C58.02 -8.1, 281.15 -44, 336.9 -53.2" stroke="#1e1e1e" stroke-width="1" fill="none"></path></g><g transform="translate(435.8223462388223 610.7065168087802) rotate(0 168.56076074146955 -26.637457712966466)"><path d="M312.58 -37.11 C316.77 -41.9, 326.57 -46.96, 335.17 -53.34 M310.04 -38.28 C317.15 -41.11, 322.15 -44.45, 337.53 -54.14" stroke="#1e1e1e" stroke-width="1" fill="none"></path></g><g transform="translate(435.8223462388223 610.7065168087802) rotate(0 168.56076074146955 -26.637457712966466)"><path d="M309.29 -57.37 C314.25 -56.67, 324.94 -56.27, 335.17 -53.34 M306.75 -58.53 C314.7 -56.74, 320.45 -55.44, 337.53 -54.14" stroke="#1e1e1e" stroke-width="1" fill="none"></path></g></g><mask id="mask-sVo22Iy-tuXdN33sxPpmD"><rect x="0" y="0" fill="#fff" width="872.359060077722" height="764.4312176602272"></rect><rect x="533.7782031582722" y="574.2441663830568" fill="#000" width="140.625" height="19.2" opacity="1"></rect></mask><g transform="translate(533.7782031582722 574.2441663830567) rotate(0 70.60490382201971 9.824892712756991)"><text x="70.3125" y="0" font-family="Cascadia, Segoe UI Emoji" font-size="16px" fill="#1e1e1e" text-anchor="middle" style="white-space: pre;" direction="ltr" dominant-baseline="text-before-edge">voucher storing</text></g><g stroke-linecap="round" transform="translate(10 793.0749027680781) rotate(0 246.5 63.5)"><path d="M31.75 0 M31.75 0 C134.11 -0.03, 238.73 -0.54, 461.25 0 M461.25 0 C482.96 0.48, 494.72 12.25, 493 31.75 M493 31.75 C492.88 56.86, 493.71 79.2, 493 95.25 M493 95.25 C491.78 117.47, 483.58 128.03, 461.25 127 M461.25 127 C324.65 127.6, 189.54 127.32, 31.75 127 M31.75 127 C12.56 127.19, -0.8 116.6, 0 95.25 M0 95.25 C1.52 81.59, 1.44 65.59, 0 31.75 M0 31.75 C-0.7 10.34, 12.32 0.42, 31.75 0" stroke="#1e1e1e" stroke-width="1.5" fill="none" stroke-dasharray="8 9"></path></g><g transform="translate(45.70609605869936 804.4476744740537) rotate(0 29.296875 12)"><text x="0" y="0" font-family="Cascadia, Segoe UI Emoji" font-size="20px" fill="#1e1e1e" text-anchor="start" style="white-space: pre;" direction="ltr" dominant-baseline="text-before-edge">Queue</text></g><g transform="translate(124.22265625 852.3184703356458) rotate(0 114.55078125 10.256432432432462)"><text x="0" y="0" font-family="Cascadia, Segoe UI Emoji" font-size="17.09405405405407px" fill="#1e1e1e" text-anchor="start" style="white-space: pre;" direction="ltr" dominant-baseline="text-before-edge">Send customer's voucher</text></g><g stroke-linecap="round"><g transform="translate(220.5 456.5749027680782) rotate(0 -0.4339625680819381 35.45694458246231)"><path d="M0.84 0.75 C0.6 12.4, -0.81 58.16, -1.19 69.53 M-0.17 0.1 C-0.53 11.95, -1.42 59.22, -1.71 70.82" stroke="#1e1e1e" stroke-width="1" fill="none"></path></g><g transform="translate(220.5 456.5749027680782) rotate(0 -0.4339625680819381 35.45694458246231)"><path d="M-10.11 43.76 C-9.13 52.43, -6.99 62.14, -1.33 72.76 M-11.98 42.17 C-8.4 48.55, -7.89 56.61, -2.14 70.97" stroke="#1e1e1e" stroke-width="1" fill="none"></path></g><g transform="translate(220.5 456.5749027680782) rotate(0 -0.4339625680819381 35.45694458246231)"><path d="M10.41 44.21 C4.77 52.88, 0.28 62.44, -1.33 72.76 M8.54 42.62 C7.14 48.68, 2.67 56.64, -2.14 70.97" stroke="#1e1e1e" stroke-width="1" fill="none"></path></g></g><mask></mask><g stroke-linecap="round"><g transform="translate(252.5 461.5749027680782) rotate(0 0.5108805202413578 30.925300058405867)"><path d="M1.13 -0.46 C0.93 9.86, -0.3 52, -0.67 62.39 M0.26 -1.75 C0.42 8.68, 1.53 52.87, 1.69 63.6" stroke="#1e1e1e" stroke-width="1" fill="none"></path></g><g transform="translate(252.5 461.5749027680782) rotate(0 0.5108805202413578 30.925300058405867)"><path d="M-9.92 34.51 C-6.36 43.27, -3.49 55.56, 0.46 64.68 M-8.88 35.81 C-5.3 45.73, -1.21 57.23, 1.23 64.24" stroke="#1e1e1e" stroke-width="1" fill="none"></path></g><g transform="translate(252.5 461.5749027680782) rotate(0 0.5108805202413578 30.925300058405867)"><path d="M10.59 34.09 C7.14 43.19, 2.99 55.62, 0.46 64.68 M11.64 35.39 C7.24 45.45, 3.34 57.12, 1.23 64.24" stroke="#1e1e1e" stroke-width="1" fill="none"></path></g></g><mask></mask><g stroke-linecap="round"><g transform="translate(189.5 695.5749027680781) rotate(0 1.3931501399725335 35.45040661580862)"><path d="M-0.65 -1.04 C-0.14 11.03, 2.54 59.85, 3.43 71.95 M1.21 1.02 C1.47 12.82, 1.67 58.9, 2.19 70.32" stroke="#1e1e1e" stroke-width="1" fill="none"></path></g><g transform="translate(189.5 695.5749027680781) rotate(0 1.3931501399725335 35.45040661580862)"><path d="M-10.43 41.42 C-3.6 52.96, -0.61 59.66, 1.03 68.7 M-8.63 41.72 C-6.52 48.72, -4.28 54.55, 2.22 69.93" stroke="#1e1e1e" stroke-width="1" fill="none"></path></g><g transform="translate(189.5 695.5749027680781) rotate(0 1.3931501399725335 35.45040661580862)"><path d="M10.09 40.97 C10.06 52.55, 6.2 59.4, 1.03 68.7 M11.88 41.26 C9.3 48.39, 6.84 54.33, 2.22 69.93" stroke="#1e1e1e" stroke-width="1" fill="none"></path></g></g><mask></mask><g stroke-linecap="round"><g transform="translate(246.5 694.5749027680781) rotate(0 0.600759691316739 37.50105954525998)"><path d="M-0.21 0.32 C0.04 12.86, 0.54 62.01, 0.87 74.36 M-1.78 -0.56 C-1.13 12.2, 2.55 62.89, 2.98 75.56" stroke="#1e1e1e" stroke-width="1" fill="none"></path></g><g transform="translate(246.5 694.5749027680781) rotate(0 0.600759691316739 37.50105954525998)"><path d="M-8.31 46.1 C-7.15 54.44, -4.05 62.19, 3.76 76.05 M-8.81 47.83 C-5.55 55.97, -3.15 62.28, 2.63 74.99" stroke="#1e1e1e" stroke-width="1" fill="none"></path></g><g transform="translate(246.5 694.5749027680781) rotate(0 0.600759691316739 37.50105954525998)"><path d="M12.18 44.95 C8.22 53.55, 6.21 61.58, 3.76 76.05 M11.68 46.69 C9.62 55.12, 6.7 61.72, 2.63 74.99" stroke="#1e1e1e" stroke-width="1" fill="none"></path></g></g><mask></mask><g transform="translate(1332.4990465266744 148.75719743708254) rotate(0 123.04687500000011 10.5)"><text x="0" y="0" font-family="Cascadia, Segoe UI Emoji" font-size="17.500000000000018px" fill="#1e1e1e" text-anchor="start" style="white-space: pre;" direction="ltr" dominant-baseline="text-before-edge">Request Voucher generate</text></g><g stroke-linecap="round" transform="translate(1316.5094599987385 245.73373597756256) rotate(0 158.5 59.5)"><path d="M29.75 0 M29.75 0 C97.13 -4.22, 160.44 -1.79, 287.25 0 M29.75 0 C89.63 -0.31, 150.52 -0.74, 287.25 0 M287.25 0 C309.34 -0.78, 314.94 13.23, 317 29.75 M287.25 0 C306.31 -2.06, 315.68 8.41, 317 29.75 M317 29.75 C321.11 50.74, 319.55 72.29, 317 89.25 M317 29.75 C316.95 50.52, 315.11 74.12, 317 89.25 M317 89.25 C315.79 112.71, 306.02 117.37, 287.25 119 M317 89.25 C321.33 105.92, 303.53 120.92, 287.25 119 M287.25 119 C209.39 119.78, 125.81 121.81, 29.75 119 M287.25 119 C216.6 117.45, 150.14 116.35, 29.75 119 M29.75 119 C8.68 122.39, -0.68 111.1, 0 89.25 M29.75 119 C12.71 120.36, 2.36 113.4, 0 89.25 M0 89.25 C-0.39 75.8, -1.4 64.5, 0 29.75 M0 89.25 C-1.5 64.48, 0.1 42.62, 0 29.75 M0 29.75 C-3.29 11.54, 7.32 -3.08, 29.75 0 M0 29.75 C4.37 14.28, 13.73 -2.91, 29.75 0" stroke="#1e1e1e" stroke-width="1" fill="none"></path></g><g transform="translate(1376.6748253807225 295.8191263586873) rotate(0 114.2578125 15.206573282247746)"><text x="0" y="0" font-family="Cascadia, Segoe UI Emoji" font-size="12.672144401873132px" fill="#1e1e1e" text-anchor="start" style="white-space: pre;" direction="ltr" dominant-baseline="text-before-edge">Despatch a job queue to start </text><text x="0" y="15.206573282247756" font-family="Cascadia, Segoe UI Emoji" font-size="12.672144401873132px" fill="#1e1e1e" text-anchor="start" style="white-space: pre;" direction="ltr" dominant-baseline="text-before-edge">     background process</text></g><g stroke-linecap="round" transform="translate(1315.2929888442343 537.6868130585228) rotate(0 158.5 59.5)"><path d="M29.75 0 M29.75 0 C95.92 -2.99, 162.04 -1.7, 287.25 0 M287.25 0 C310.96 0.66, 316.34 6.63, 317 29.75 M317 29.75 C321.09 48.38, 313.72 73.2, 317 89.25 M317 89.25 C316.37 111.79, 304.29 116.62, 287.25 119 M287.25 119 C193.7 122.43, 101.83 123.91, 29.75 119 M29.75 119 C11.16 120.41, 3.93 110.08, 0 89.25 M0 89.25 C-0.71 65.78, -2.61 41.05, 0 29.75 M0 29.75 C-2.81 10.11, 8.4 3.44, 29.75 0" stroke="#1e1e1e" stroke-width="1.5" fill="none" stroke-dasharray="8 9"></path></g><g transform="translate(1401.2929888442343 561.3099241696339) rotate(0 71.96875 8.188444444444428)"><text x="0" y="0" font-family="Cascadia, Segoe UI Emoji" font-size="13.647407407407407px" fill="#1e1e1e" text-anchor="start" style="white-space: pre;" direction="ltr" dominant-baseline="text-before-edge">Get Customers list</text></g><g transform="translate(1380.3242388442343 609.6686842207193) rotate(0 110.44921875 7.603286641123873)"><text x="0" y="0" font-family="Cascadia, Segoe UI Emoji" font-size="12.672144401873132px" fill="#1e1e1e" text-anchor="start" style="white-space: pre;" direction="ltr" dominant-baseline="text-before-edge">Despatch a job queue per user</text></g><g transform="translate(1328.9313541663541 549.9091495779066) rotate(0 29.296875 12)"><text x="0" y="0" font-family="Cascadia, Segoe UI Emoji" font-size="20px" fill="#1e1e1e" text-anchor="start" style="white-space: pre;" direction="ltr" dominant-baseline="text-before-edge">Queue</text></g><g stroke-linecap="round"><g transform="translate(1470.1435753807232 362.40788023925063) rotate(0 1.2859773611628498 81.60727091014172)"><path d="M-0.93 0.93 C-0.34 1.41, 0.84 -28.96, 0.99 0.17 C1.15 29.29, 0.36 146.74, 0.01 175.7 M3.77 -1.04 C4.31 0.19, 0.11 -24.81, -0.71 3.89 C-1.52 32.58, -1.18 142.34, -1.13 171.11" stroke="#1e1e1e" stroke-width="1" fill="none"></path></g><g transform="translate(1470.1435753807232 362.40788023925063) rotate(0 1.2859773611628498 81.60727091014172)"><path d="M-10.12 144.36 C-9.6 150.65, -5.2 154.97, -1.17 169.54 M-12.31 142.39 C-9.41 149.34, -4.69 156.66, -2.4 171.45" stroke="#1e1e1e" stroke-width="1" fill="none"></path></g><g transform="translate(1470.1435753807232 362.40788023925063) rotate(0 1.2859773611628498 81.60727091014172)"><path d="M10.4 144.32 C6.63 150.48, 6.75 154.81, -1.17 169.54 M8.21 142.35 C5.51 149.33, 4.63 156.65, -2.4 171.45" stroke="#1e1e1e" stroke-width="1" fill="none"></path></g></g><mask></mask><g stroke-linecap="round" transform="translate(1990.9309122421878 665.0656977449546) rotate(0 76.5 63.5)"><path d="M96.25 16 M96.25 16 C107.28 31.04, 125.57 38.58, 133.75 48 M96.25 16 C108.16 23.91, 116.21 31.93, 133.75 48 M133.75 48 C156.09 61.92, 152.96 64.69, 133.75 80 M133.75 48 C150.12 63.83, 154.93 66.64, 133.75 80 M133.75 80 C121.68 88.07, 110.48 93.79, 96.25 111 M133.75 80 C124.27 89.17, 112.04 99.42, 96.25 111 M96.25 111 C74.31 129.7, 78.68 127.75, 57.75 111 M96.25 111 C74.57 129.59, 78.54 129.8, 57.75 111 M57.75 111 C46.24 97.63, 36.82 93.25, 19.25 80 M57.75 111 C48.92 101.64, 38.17 96.31, 19.25 80 M19.25 80 C1.56 67.97, -0.9 61.46, 19.25 48 M19.25 80 C3.77 68.3, 2.4 60.84, 19.25 48 M19.25 48 C32.09 38.94, 45.17 23.3, 57.75 16 M19.25 48 C27.97 41.35, 40.8 31.68, 57.75 16 M57.75 16 C79.6 -0.51, 76.03 3.85, 96.25 16 M57.75 16 C75.75 0.26, 79.27 1.35, 96.25 16" stroke="#1e1e1e" stroke-width="1" fill="none"></path></g><g transform="translate(2053.789310679688 717.3156977449546) rotate(0 13.8916015625 11.5)"><text x="13.8916015625" y="0" font-family="Helvetica, Segoe UI Emoji" font-size="20px" fill="#1e1e1e" text-anchor="middle" style="white-space: pre;" direction="ltr" dominant-baseline="text-before-edge">DB</text></g><g stroke-linecap="round"><g transform="translate(2016.9974524501763 700.4260003110505) rotate(0 -203.59683630717245 -63.09089266967021)"><path d="M-0.92 0.36 C-68.81 -20.84, -339.44 -105.55, -407.54 -126.54 M0.8 -0.5 C-67.15 -21.57, -340.01 -103.95, -408 -125.13" stroke="#1e1e1e" stroke-width="1" fill="none"></path></g><g transform="translate(2016.9974524501763 700.4260003110505) rotate(0 -203.59683630717245 -63.09089266967021)"><path d="M-377.44 -125.13 C-386.97 -128.18, -393.93 -125.61, -406.2 -127.07 M-378.48 -126.61 C-387.49 -126.63, -396.63 -126.55, -407.53 -125.16" stroke="#1e1e1e" stroke-width="1" fill="none"></path></g><g transform="translate(2016.9974524501763 700.4260003110505) rotate(0 -203.59683630717245 -63.09089266967021)"><path d="M-383.44 -105.51 C-391.37 -114.11, -396.62 -117.14, -406.2 -127.07 M-384.49 -106.99 C-391.83 -113.07, -399.12 -119.04, -407.53 -125.16" stroke="#1e1e1e" stroke-width="1" fill="none"></path></g></g><mask></mask><g stroke-linecap="round"><g transform="translate(1437.0028763892346 664.092726556243) rotate(0 -1.9970498184875396 52.24376759944664)"><path d="M-0.07 -2.42 C-0.56 15.78, -1.17 89.47, -1.46 106.9 M-3.55 2.44 C-4.49 20.09, -3.36 86.22, -3.34 103.13" stroke="#1e1e1e" stroke-width="1" fill="none"></path></g><g transform="translate(1437.0028763892346 664.092726556243) rotate(0 -1.9970498184875396 52.24376759944664)"><path d="M-17.3 76 C-7.31 85.46, -10.35 94.65, -0.18 105.33 M-14.41 75.74 C-10.96 82.15, -8.08 90.14, -3.83 103.12" stroke="#1e1e1e" stroke-width="1" fill="none"></path></g><g transform="translate(1437.0028763892346 664.092726556243) rotate(0 -1.9970498184875396 52.24376759944664)"><path d="M3.22 75.81 C5.94 85.33, -4.35 94.58, -0.18 105.33 M6.11 75.55 C3.78 82.02, 0.87 90.06, -3.83 103.12" stroke="#1e1e1e" stroke-width="1" fill="none"></path></g></g><mask></mask><g stroke-linecap="round" transform="translate(1224.860046535226 774.5481016503152) rotate(0 246.5 63.5)"><path d="M31.75 0 M31.75 0 C143.52 -2.5, 253.95 -0.94, 461.25 0 M461.25 0 C482.4 0.71, 494.4 12.36, 493 31.75 M493 31.75 C492.81 49.32, 493.17 69.7, 493 95.25 M493 95.25 C492.98 114.45, 481.38 126.32, 461.25 127 M461.25 127 C345.65 125.68, 231.93 125.39, 31.75 127 M31.75 127 C9.63 127.64, 0.78 114.82, 0 95.25 M0 95.25 C-0.98 73.07, -1.98 51.62, 0 31.75 M0 31.75 C-0.3 12.17, 8.9 -1.34, 31.75 0" stroke="#1e1e1e" stroke-width="1.5" fill="none" stroke-dasharray="8 9"></path></g><g transform="translate(1261.1680326719256 788.0284871663562) rotate(0 29.296875 12)"><text x="0" y="0" font-family="Cascadia, Segoe UI Emoji" font-size="20px" fill="#1e1e1e" text-anchor="start" style="white-space: pre;" direction="ltr" dominant-baseline="text-before-edge">Queue</text></g><g transform="translate(1264.610046535226 816.2916687854504) rotate(0 184.27734375 10.256432432432462)"><text x="0" y="0" font-family="Cascadia, Segoe UI Emoji" font-size="17.09405405405407px" fill="#1e1e1e" text-anchor="start" style="white-space: pre;" direction="ltr" dominant-baseline="text-before-edge">Handle Voucher generation and assign </text></g><g transform="translate(1273.563171535226 857.6849081452808) rotate(0 176.12109375 8.059812968733468)"><text x="0" y="0" font-family="Cascadia, Segoe UI Emoji" font-size="13.433021614555754px" fill="#1e1e1e" text-anchor="start" style="white-space: pre;" direction="ltr" dominant-baseline="text-before-edge">Despatch a job for sending customer's voucher</text></g><g stroke-linecap="round" transform="translate(1239.4577003892748 1012.9764479330997) rotate(0 246.4999999999999 63.5)"><path d="M31.75 0 M31.75 0 C171.01 1.27, 307.31 0.57, 461.25 0 M461.25 0 C480.71 -1.77, 492.01 10, 493 31.75 M493 31.75 C494.57 44.96, 493.52 57.39, 493 95.25 M493 95.25 C493.88 116.42, 481.46 126.61, 461.25 127 M461.25 127 C314.26 127.31, 164.82 126.85, 31.75 127 M31.75 127 C11.22 128.35, 0.75 114.64, 0 95.25 M0 95.25 C1.96 80, 1.16 68.79, 0 31.75 M0 31.75 C0.16 11.86, 11.61 -0.5, 31.75 0" stroke="#1e1e1e" stroke-width="1.5" fill="none" stroke-dasharray="8 9"></path></g><g transform="translate(1275.1637964479742 1024.349219639075) rotate(0 29.296875 12)"><text x="0" y="0" font-family="Cascadia, Segoe UI Emoji" font-size="20px" fill="#1e1e1e" text-anchor="start" style="white-space: pre;" direction="ltr" dominant-baseline="text-before-edge">Queue</text></g><g transform="translate(1353.6803566392748 1072.2200155006674) rotate(0 114.55078125 10.256432432432462)"><text x="0" y="0" font-family="Cascadia, Segoe UI Emoji" font-size="17.09405405405407px" fill="#1e1e1e" text-anchor="start" style="white-space: pre;" direction="ltr" dominant-baseline="text-before-edge">Send customer's voucher</text></g><g stroke-linecap="round"><g transform="translate(1429.2619237851445 902.5481016503152) rotate(0 0.32863225306618915 55.31499986044736)"><path d="M0.04 1.48 C0.64 19.65, 3.94 90.05, 4.05 107.56 M-3.39 -0.19 C-2.96 18.53, 2.91 92.67, 3.22 110.82" stroke="#1e1e1e" stroke-width="1" fill="none"></path></g><g transform="translate(1429.2619237851445 902.5481016503152) rotate(0 0.32863225306618915 55.31499986044736)"><path d="M-6.38 86.92 C-6.06 90.83, -3.85 104.17, 0.76 110.84 M-8.96 81.46 C-4.72 88.68, -1.08 97.01, 1.25 109.64" stroke="#1e1e1e" stroke-width="1" fill="none"></path></g><g transform="translate(1429.2619237851445 902.5481016503152) rotate(0 0.32863225306618915 55.31499986044736)"><path d="M14.11 85.86 C7.97 90.1, 3.73 103.78, 0.76 110.84 M11.53 80.39 C10.66 87.99, 9.19 96.59, 1.25 109.64" stroke="#1e1e1e" stroke-width="1" fill="none"></path></g></g><mask></mask><g stroke-linecap="round"><g transform="translate(1490.5828741364996 901.9337605256164) rotate(0 8.49700834896953 56.883829349263635)"><path d="M0.69 2.75 C4.12 21.07, 16.23 90.65, 19.38 108.76 M-2.38 1.77 C0.74 20.61, 13.53 94.47, 16.86 111.99" stroke="#1e1e1e" stroke-width="1" fill="none"></path></g><g transform="translate(1490.5828741364996 901.9337605256164) rotate(0 8.49700834896953 56.883829349263635)"><path d="M5.7 85.33 C4.39 92.16, 12.04 103.03, 13.41 111.39 M2.31 85.72 C8.91 95.52, 13.88 108.51, 17.87 111.9" stroke="#1e1e1e" stroke-width="1" fill="none"></path></g><g transform="translate(1490.5828741364996 901.9337605256164) rotate(0 8.49700834896953 56.883829349263635)"><path d="M25.89 81.7 C19.38 89.56, 21.86 101.36, 13.41 111.39 M22.5 82.09 C21.17 93.12, 18.19 107.54, 17.87 111.9" stroke="#1e1e1e" stroke-width="1" fill="none"></path></g></g><mask></mask><g stroke-linecap="round"><g transform="translate(1505.1383771624046 662.9407474459654) rotate(0 5.336331835825263 52.62619619758976)"><path d="M-1.09 -1.98 C1.26 15.4, 9.62 86.03, 11.76 103.96 M3.52 3.12 C5.75 20.95, 8.65 90.98, 9.77 107.23" stroke="#1e1e1e" stroke-width="1" fill="none"></path></g><g transform="translate(1505.1383771624046 662.9407474459654) rotate(0 5.336331835825263 52.62619619758976)"><path d="M-4.83 80.28 C-0.45 86.35, 4.45 93.89, 13.27 110.82 M-1.98 78.67 C1.08 85.36, 4.61 94.02, 10.29 109.07" stroke="#1e1e1e" stroke-width="1" fill="none"></path></g><g transform="translate(1505.1383771624046 662.9407474459654) rotate(0 5.336331835825263 52.62619619758976)"><path d="M15.67 79.18 C15.6 85.33, 16.07 93.11, 13.27 110.82 M18.51 77.57 C16.68 84.77, 15.34 93.69, 10.29 109.07" stroke="#1e1e1e" stroke-width="1" fill="none"></path></g></g><mask></mask><g mask="url(#mask-RsRYpVHxWnfiNAXmTptaS)" stroke-linecap="round"><g transform="translate(1602.051189801743 840.0662689835815) rotate(0 205.4584589661365 -46.01035225930758)"><path d="M-1.16 -0.31 C66.98 -15.51, 341.06 -76.63, 409.84 -91.71 M0.43 -1.52 C68.86 -16.49, 343.63 -75.1, 412.08 -90.32" stroke="#1e1e1e" stroke-width="1" fill="none"></path></g><g transform="translate(1602.051189801743 840.0662689835815) rotate(0 205.4584589661365 -46.01035225930758)"><path d="M386.19 -75.81 C396.04 -78.93, 407.27 -86.81, 410.78 -92.11 M386.28 -74.84 C391.27 -77.18, 397.72 -80.53, 412.91 -89.99" stroke="#1e1e1e" stroke-width="1" fill="none"></path></g><g transform="translate(1602.051189801743 840.0662689835815) rotate(0 205.4584589661365 -46.01035225930758)"><path d="M381.84 -95.87 C393.27 -91.26, 406.16 -91.45, 410.78 -92.11 M381.92 -94.89 C387.93 -93.01, 395.3 -92.14, 412.91 -89.99" stroke="#1e1e1e" stroke-width="1" fill="none"></path></g></g><mask id="mask-RsRYpVHxWnfiNAXmTptaS"><rect x="0" y="0" fill="#fff" width="2112.7926440653864" height="1031.5015756246526"></rect><rect x="1737.1094169335647" y="784.748615663046" fill="#000" width="140.625" height="19.2" opacity="1"></rect></mask><g transform="translate(1737.1094169335647 784.7486156630458) rotate(0 70.40023183431481 9.307301061227975)"><text x="70.3125" y="0" font-family="Cascadia, Segoe UI Emoji" font-size="16px" fill="#1e1e1e" text-anchor="middle" style="white-space: pre;" direction="ltr" dominant-baseline="text-before-edge">voucher storing</text></g><g transform="translate(2563.5978371631413 138.39152869064566) rotate(0 123.046875 10.5)"><text x="0" y="0" font-family="Cascadia, Segoe UI Emoji" font-size="17.500000000000018px" fill="#1e1e1e" text-anchor="start" style="white-space: pre;" direction="ltr" dominant-baseline="text-before-edge">Request Voucher generate</text></g><g stroke-linecap="round" transform="translate(2547.6082506352054 235.36806723112562) rotate(0 158.5 59.5)"><path d="M29.75 0 M29.75 0 C98.89 -6.61, 170.24 -3.08, 287.25 0 M29.75 0 C87.88 -2.25, 144.68 -3.25, 287.25 0 M287.25 0 C309.04 1.74, 317.39 11.9, 317 29.75 M287.25 0 C304.94 -4.26, 315.13 9.63, 317 29.75 M317 29.75 C321.22 47.97, 316.44 68.42, 317 89.25 M317 29.75 C314.61 44.05, 314.67 60.11, 317 89.25 M317 89.25 C318.83 109.35, 309.36 120.97, 287.25 119 M317 89.25 C316.64 112.46, 305.04 121.8, 287.25 119 M287.25 119 C223.67 119.31, 154.16 117.79, 29.75 119 M287.25 119 C219.72 118.92, 149.79 118.44, 29.75 119 M29.75 119 C8.49 115.19, -3.78 107.79, 0 89.25 M29.75 119 C7.21 118.49, 3.29 110.67, 0 89.25 M0 89.25 C1.59 79.53, 3.37 65.28, 0 29.75 M0 89.25 C-0.91 67.06, -1.63 47.88, 0 29.75 M0 29.75 C-2.53 12.43, 12.31 1.96, 29.75 0 M0 29.75 C-1.5 8.92, 6.59 -1.04, 29.75 0" stroke="#1e1e1e" stroke-width="1" fill="none"></path></g><g transform="translate(2607.7736160171894 285.4534576122505) rotate(0 114.2578125 15.206573282247746)"><text x="0" y="0" font-family="Cascadia, Segoe UI Emoji" font-size="12.672144401873132px" fill="#1e1e1e" text-anchor="start" style="white-space: pre;" direction="ltr" dominant-baseline="text-before-edge">Despatch a job queue to start </text><text x="0" y="15.206573282247756" font-family="Cascadia, Segoe UI Emoji" font-size="12.672144401873132px" fill="#1e1e1e" text-anchor="start" style="white-space: pre;" direction="ltr" dominant-baseline="text-before-edge">     background process</text></g><g stroke-linecap="round"><g transform="translate(2701.24236601719 352.0422114928137) rotate(0 -1.4673576255572698 96.57931428343608)"><path d="M1.37 1.22 C1.74 1.86, 0.81 -33.31, 0.27 1.39 C-0.27 36.09, -1.54 174.35, -1.87 209.43 M-1.33 -0.59 C-1.14 -0.55, -1.31 -38.15, -1.82 -2.87 C-2.33 32.42, -4.4 174.93, -4.39 211.13" stroke="#1e1e1e" stroke-width="1" fill="none"></path></g><g transform="translate(2701.24236601719 352.0422114928137) rotate(0 -1.4673576255572698 96.57931428343608)"><path d="M-12.68 183.25 C-10.62 187.41, -14 194.17, -4.64 210.87 M-14.04 182.05 C-8.9 192.47, -7.75 205.48, -6.26 211.22" stroke="#1e1e1e" stroke-width="1" fill="none"></path></g><g transform="translate(2701.24236601719 352.0422114928137) rotate(0 -1.4673576255572698 96.57931428343608)"><path d="M7.84 183.41 C5.17 187.74, -2.93 194.46, -4.64 210.87 M6.48 182.22 C3.64 192.9, -3.18 205.84, -6.26 211.22" stroke="#1e1e1e" stroke-width="1" fill="none"></path></g></g><mask></mask><g stroke-linecap="round" transform="translate(3222.0297028786545 654.7000289985178) rotate(0 76.5 63.5)"><path d="M96.25 16 M96.25 16 C111.59 25.23, 118.98 36.63, 133.75 48 M96.25 16 C106.3 26.31, 118.62 33.32, 133.75 48 M133.75 48 C156.75 61.55, 151.26 65.59, 133.75 80 M133.75 48 C148.69 64.21, 148.83 68.47, 133.75 80 M133.75 80 C122.8 90.83, 110.8 100.08, 96.25 111 M133.75 80 C120.68 92.35, 105.6 100.76, 96.25 111 M96.25 111 C73.54 125.66, 76.07 127.96, 57.75 111 M96.25 111 C80.13 123.92, 76.42 122.57, 57.75 111 M57.75 111 C46.87 99.72, 37.55 96.74, 19.25 80 M57.75 111 C44.43 100.63, 34.03 91.15, 19.25 80 M19.25 80 C1.52 65.88, -0.24 60.71, 19.25 48 M19.25 80 C-2.25 60.45, -3.92 63.78, 19.25 48 M19.25 48 C29.92 38.66, 36.2 29.5, 57.75 16 M19.25 48 C29.51 37.81, 42.08 31.88, 57.75 16 M57.75 16 C77.3 -0.34, 79.19 2.74, 96.25 16 M57.75 16 C81.56 -3.88, 78.08 3.15, 96.25 16" stroke="#1e1e1e" stroke-width="1" fill="none"></path></g><g transform="translate(3284.8881013161545 706.9500289985178) rotate(0 13.8916015625 11.5)"><text x="13.8916015625" y="0" font-family="Helvetica, Segoe UI Emoji" font-size="20px" fill="#1e1e1e" text-anchor="middle" style="white-space: pre;" direction="ltr" dominant-baseline="text-before-edge">DB</text></g><g mask="url(#mask-93muUbibIj-S3qAObWwuO)" stroke-linecap="round"><g transform="translate(2855.977762179882 620.7485282804691) rotate(0 191.81234829787036 29.38272422441986)"><path d="M-0.49 -0.08 C63.62 10.1, 320.09 49.95, 384.11 59.93 M1.46 -1.16 C65.45 8.8, 319.6 48.51, 383.12 58.36" stroke="#1e1e1e" stroke-width="1" fill="none"></path></g><g transform="translate(2855.977762179882 620.7485282804691) rotate(0 191.81234829787036 29.38272422441986)"><path d="M353.56 64.03 C362.98 61.89, 370.24 61.72, 382.32 60.24 M352.75 64.21 C359.83 63.63, 368.23 61.34, 383.69 58.86" stroke="#1e1e1e" stroke-width="1" fill="none"></path></g><g transform="translate(2855.977762179882 620.7485282804691) rotate(0 191.81234829787036 29.38272422441986)"><path d="M356.72 43.75 C365.15 46.74, 371.61 51.71, 382.32 60.24 M355.91 43.93 C362.15 48.21, 369.79 50.76, 383.69 58.86" stroke="#1e1e1e" stroke-width="1" fill="none"></path></g></g><mask id="mask-93muUbibIj-S3qAObWwuO"><rect x="0" y="0" fill="#fff" width="3340.168243799938" height="779.6080618331038"></rect><rect x="3029.3230029899096" y="640.5782950567865" fill="#000" width="37.5" height="19.2" opacity="1"></rect></mask><g transform="translate(3029.32300298991 640.5782950567865) rotate(0 18.46710748784244 9.552957448102632)"><text x="18.75" y="0" font-family="Cascadia, Segoe UI Emoji" font-size="16px" fill="#1e1e1e" text-anchor="middle" style="white-space: pre;" direction="ltr" dominant-baseline="text-before-edge">Read</text></g><g stroke-linecap="round" transform="translate(2439.8523410925236 584.0825222004428) rotate(0 269.2358699127567 69.35690766515233)"><path d="M32 0 M32 0 C171.92 1.14, 310.09 1.8, 506.47 0 M506.47 0 C526.58 -0.87, 539.27 8.79, 538.47 32 M538.47 32 C538.71 54.89, 538.93 78.5, 538.47 106.71 M538.47 106.71 C538.31 129.51, 526.91 139.93, 506.47 138.71 M506.47 138.71 C387 139.16, 265.9 138.74, 32 138.71 M32 138.71 C10 138.25, 0.48 129.41, 0 106.71 M0 106.71 C-0.62 87.39, -1.79 71.23, 0 32 M0 32 C-1.18 10.45, 12.1 0.69, 32 0" stroke="#1e1e1e" stroke-width="1.5" fill="none" stroke-dasharray="8 9"></path></g><g transform="translate(2479.509185848283 598.8062679252728) rotate(0 31.999065421299292 13.106817196564236)"><text x="0" y="0" font-family="Cascadia, Segoe UI Emoji" font-size="21.844695327607035px" fill="#1e1e1e" text-anchor="start" style="white-space: pre;" direction="ltr" dominant-baseline="text-before-edge">Queue</text></g><g transform="translate(2603.214638844124 608.8856634282529) rotate(0 97.91714018917605 11.202432081733718)"><text x="0" y="0" font-family="Cascadia, Segoe UI Emoji" font-size="18.67072013622285px" fill="#1e1e1e" text-anchor="start" style="white-space: pre;" direction="ltr" dominant-baseline="text-before-edge">Get Customers list</text></g><g transform="translate(2493.0475874488916 674.8874326200801) rotate(0 237.11307477182822 8.803207934973898)"><text x="0" y="0" font-family="Cascadia, Segoe UI Emoji" font-size="14.672013224956519px" fill="#1e1e1e" text-anchor="start" style="white-space: pre;" direction="ltr" dominant-baseline="text-before-edge">Despatch a job for sending offer voucher code to customer</text></g><g stroke-linecap="round" transform="translate(2469.092264109454 889.8653066324794) rotate(0 246.5 63.5)"><path d="M31.75 0 M31.75 0 C142 1.14, 253.17 2.55, 461.25 0 M461.25 0 C482.55 1.14, 493.99 10.43, 493 31.75 M493 31.75 C491.77 56.09, 493.47 80.08, 493 95.25 M493 95.25 C492.22 114.56, 480.69 126.33, 461.25 127 M461.25 127 C341.66 128.38, 222.45 128.14, 31.75 127 M31.75 127 C8.68 125.11, -0.65 115.24, 0 95.25 M0 95.25 C-2.17 75.73, -1.43 58.99, 0 31.75 M0 31.75 C1.51 11.92, 11.34 0.94, 31.75 0" stroke="#1e1e1e" stroke-width="1.5" fill="none" stroke-dasharray="8 9"></path></g><g transform="translate(2504.7983601681535 901.2380783384549) rotate(0 29.296875 12)"><text x="0" y="0" font-family="Cascadia, Segoe UI Emoji" font-size="20px" fill="#1e1e1e" text-anchor="start" style="white-space: pre;" direction="ltr" dominant-baseline="text-before-edge">Queue</text></g><g transform="translate(2583.314920359454 949.1088742000472) rotate(0 114.55078125 10.256432432432462)"><text x="0" y="0" font-family="Cascadia, Segoe UI Emoji" font-size="17.09405405405407px" fill="#1e1e1e" text-anchor="start" style="white-space: pre;" direction="ltr" dominant-baseline="text-before-edge">Send customer's voucher</text></g><g stroke-linecap="round"><g transform="translate(2662.0574219273376 723.7963375307475) rotate(0 -0.7439854281822136 82.79662915115512)"><path d="M1.59 1.38 C1.26 29, -0.17 138.56, -0.72 165.93 M-0.99 -0.34 C-1.83 26.5, -2.54 135.15, -3.08 162.04" stroke="#1e1e1e" stroke-width="1" fill="none"></path></g><g transform="translate(2662.0574219273376 723.7963375307475) rotate(0 -0.7439854281822136 82.79662915115512)"><path d="M-11.01 133.4 C-6.59 141.61, -3.66 151.29, -1.81 163.55 M-14.71 133.05 C-10.24 144.18, -4.99 152.16, -3.33 160.11" stroke="#1e1e1e" stroke-width="1" fill="none"></path></g><g transform="translate(2662.0574219273376 723.7963375307475) rotate(0 -0.7439854281822136 82.79662915115512)"><path d="M9.51 133.66 C6.84 142.02, 2.67 151.61, -1.81 163.55 M5.81 133.31 C3.18 143.97, 1.33 151.86, -3.33 160.11" stroke="#1e1e1e" stroke-width="1" fill="none"></path></g></g><mask></mask><g stroke-linecap="round"><g transform="translate(2725.2324337371697 723.7963375307475) rotate(0 6.830169017063554 83.45735529950201)"><path d="M-0.22 2.05 C2.42 29.53, 14.51 138.99, 17.44 166.22 M-3.78 0.7 C-1.77 27.24, 11.43 135.52, 14.53 162.13" stroke="#1e1e1e" stroke-width="1" fill="none"></path></g><g transform="translate(2725.2324337371697 723.7963375307475) rotate(0 6.830169017063554 83.45735529950201)"><path d="M3.95 133.57 C8.54 143.03, 12.2 156, 16.37 160.56 M0.55 135.83 C4.71 139.66, 5.9 144.62, 13.82 160.23" stroke="#1e1e1e" stroke-width="1" fill="none"></path></g><g transform="translate(2725.2324337371697 723.7963375307475) rotate(0 6.830169017063554 83.45735529950201)"><path d="M24.32 131.15 C21.67 141.44, 18.05 155.28, 16.37 160.56 M20.93 133.4 C20.82 137.6, 17.79 143.07, 13.82 160.23" stroke="#1e1e1e" stroke-width="1" fill="none"></path></g></g><mask></mask><g stroke-linecap="round"><g transform="translate(2886.630164771481 622.7789644665677) rotate(0 -32.08218341491829 -3.213214275811538)"><path d="M1.82 -2.64 C-8.91 -3.93, -53.18 -7.59, -65.01 -8.52 M-0.64 2.1 C-11.48 1.26, -55.53 -4.27, -65.98 -5.55" stroke="#1e1e1e" stroke-width="1" fill="none"></path></g><g transform="translate(2886.630164771481 622.7789644665677) rotate(0 -32.08218341491829 -3.213214275811538)"><path d="M-40.52 -8.93 C-46.63 -12.62, -54.31 -10.33, -64.29 -2.75 M-38.05 -10.58 C-46.25 -9.56, -54.97 -8.26, -67 -6.74" stroke="#1e1e1e" stroke-width="1" fill="none"></path></g><g transform="translate(2886.630164771481 622.7789644665677) rotate(0 -32.08218341491829 -3.213214275811538)"><path d="M-43.03 11.43 C-48.33 2.05, -55.31 -1.31, -64.29 -2.75 M-40.56 9.79 C-48 4.81, -55.98 0.17, -67 -6.74" stroke="#1e1e1e" stroke-width="1" fill="none"></path></g></g><mask></mask><g transform="translate(2597.8468666563017 635.9501626947449) rotate(0 109.5703125 10.256432432432462)"><text x="0" y="0" font-family="Cascadia, Segoe UI Emoji" font-size="17.09405405405407px" fill="#1e1e1e" text-anchor="start" style="white-space: pre;" direction="ltr" dominant-baseline="text-before-edge">Get Offer voucher code</text></g><g stroke-linecap="round" transform="translate(2612.819731425607 29.767063369889172) rotate(0 81.26459385398925 44.65892094678688)"><path d="M11.75 22.14 C11.75 22.14, 11.75 22.14, 11.75 22.14 M11.75 22.14 C11.75 22.14, 11.75 22.14, 11.75 22.14 M3.54 44.95 C8.27 33.25, 9.49 27.42, 18.47 13.97 M-2.14 42.73 C5.65 35.66, 13.48 25.73, 20.21 15.85 M1.29 49.84 C13.47 33.08, 25.12 24.16, 30.77 6.65 M-0.01 48.2 C10.6 33.41, 23.55 18.32, 34.6 11.34 M4.3 50.8 C14.77 35.18, 30.14 21.67, 43.09 10.1 M1.43 52.32 C15.07 37.26, 28.22 24.02, 42.91 6.62 M6.04 58.12 C22.59 39.35, 39.24 14.91, 51.31 6.14 M3.69 55.82 C21.91 35.3, 38.31 17.65, 45.6 7.01 M7.3 59.46 C20.84 44.09, 30.61 34.09, 52.28 5.81 M3.59 62.74 C13.61 49.07, 24.9 33.02, 55.52 4.52 M5.51 59.7 C26.88 44.29, 42.04 22.66, 59.95 -0.18 M8.4 65.29 C26.64 41.41, 41.14 22.78, 61.93 3.36 M13.56 69.41 C28.45 46.92, 43.75 28.95, 66.06 3.61 M10.71 67.39 C26.83 44.58, 46.32 25.39, 65.1 2.06 M9.74 71.87 C31.09 47.26, 45.61 34.17, 70.11 1 M12.26 68.76 C29.95 48.51, 45.75 32.24, 70.29 0.17 M19.8 67.26 C33.22 52.08, 58.04 25.69, 74.82 3.32 M17.94 72.18 C33.94 48.71, 56.27 26.05, 77.1 2.46 M17.72 74.25 C33.19 54.59, 48.44 40.89, 82.16 3.32 M18.5 74.12 C37.94 53.9, 54.19 33.55, 83.45 -0.1 M21 72.14 C46.56 49.19, 71.83 28.44, 90.62 -1.08 M21.77 73.98 C39.5 54.24, 60.02 33.68, 88.79 2.49 M24.07 81.75 C43.43 58.99, 56.99 40.75, 90.07 5.73 M28.04 75.97 C44.65 58.18, 59.54 35.66, 92.88 2.78 M31.69 82.26 C46.98 62.72, 64.54 41.19, 99.68 0.09 M31.35 81.11 C48.86 58.41, 66.8 35.66, 95.68 4.05 M31.61 83.85 C47.87 63.66, 68.11 46.46, 102.72 6.98 M34.13 80.87 C54.34 56.61, 74.99 30.67, 100.04 3.21 M39.35 81.86 C59.98 56.49, 83.75 28.85, 104.54 7.64 M39.86 82.37 C59.85 59.02, 79.9 31.09, 107.67 3.55 M46.15 82.1 C68.77 56.01, 94.15 23.87, 111.3 6.91 M43.05 82.84 C55.2 69.39, 70.08 50.55, 113.78 5.09 M45.09 81.03 C66.81 67, 85.43 43.81, 113.35 7.91 M47.22 84.78 C73.84 53.78, 99.25 25.64, 116.4 4.36 M53.77 89.11 C70.91 59.41, 90.66 35.07, 119.28 8.15 M49.51 88.4 C70.16 65.55, 87.61 43.69, 122.36 5.53 M56.3 90.42 C70.59 62.57, 91.48 42.66, 127.24 9.61 M54.7 86.33 C68.32 69.15, 87.49 50.13, 124.56 7.61 M62.78 85.8 C86.48 57.56, 115.29 29.78, 124.39 9.91 M60.51 87.77 C81.66 59.51, 104.26 34.98, 129.35 10.63 M67.27 92.47 C81.57 71.19, 96.29 57.8, 135.54 15.44 M63.59 89.22 C79.26 70.52, 97.19 52.26, 131.13 13.84 M70.49 87.4 C82.23 71.35, 99.56 54.5, 138.59 11.94 M68.12 90.88 C94.44 60.71, 122.77 30.65, 135.69 13.4 M75.89 89.19 C89.99 72.53, 108.01 52.02, 135.86 19.19 M73.86 89.62 C91.47 70.38, 111.01 46.6, 137.49 18.08 M79.72 94.18 C93.3 75.85, 106.9 54.39, 141.48 21.57 M80.06 92.13 C100.37 69, 118.76 47, 143.02 18.88 M82.34 87.14 C105.9 69.27, 129.72 45.56, 149.43 21.98 M84.85 92.66 C101.78 72.15, 120.52 49.49, 148.71 20.07 M88.98 94.28 C104.6 70, 118.61 51.49, 148.94 24.94 M91.81 91.15 C103.95 71.41, 121.05 51.06, 148.35 21.31 M95.77 91.48 C108.67 73.45, 120.93 59.24, 147.81 26.24 M95.99 92.48 C110.62 74.82, 128.08 56.42, 150.28 24.32 M99.72 87.85 C120.8 68.97, 130.47 49.26, 153.14 31.01 M99.87 91.06 C114.42 73.28, 128.25 58.45, 154.1 30.14 M106.21 92.9 C127.05 65.39, 140.4 50.2, 157.38 33.42 M104.69 89.14 C122.64 72.19, 137.11 52.56, 158.64 31.74 M117.56 85.11 C130.43 70.73, 146.32 48.75, 163.09 38.27 M113.03 86.38 C126.81 70.91, 141.25 53.81, 158.63 34.78 M119.26 81.14 C127.76 75.33, 137.78 64.05, 162.22 39.09 M122.98 84.16 C134.99 67.24, 151.07 49.89, 161.96 36.74 M129.16 83.12 C139.04 66.5, 157.63 49.64, 161.5 39.05 M131.21 81.91 C135.17 74.78, 145.1 64.95, 163.04 42.88 M141.58 77.06 C143.7 70.76, 151.06 62.74, 159.99 48.37 M137.08 78.59 C146.5 70.08, 151.61 63.32, 162.17 48.72" stroke="#b2f2bb" stroke-width="0.5" fill="none"></path><path d="M40.11 5.68 C49.88 1.56, 67.26 -0.42, 79.77 -0.84 C92.29 -1.27, 104.29 -0.04, 115.21 3.11 C126.12 6.27, 137.5 12.09, 145.25 18.08 C153 24.07, 159.41 32.54, 161.69 39.05 C163.97 45.57, 163.07 51.07, 158.92 57.16 C154.76 63.26, 145.84 70.52, 136.76 75.63 C127.68 80.74, 116.31 85.57, 104.42 87.82 C92.53 90.07, 78.17 90.68, 65.42 89.13 C52.67 87.58, 38.03 83.13, 27.91 78.51 C17.79 73.89, 9.43 67.45, 4.68 61.41 C-0.07 55.37, -1.72 48.74, -0.59 42.26 C0.53 35.77, 1.91 29.48, 11.44 22.5 C20.98 15.52, 46.04 3.78, 56.6 0.37 C67.16 -3.05, 74.31 1.04, 74.79 2 M20.14 15.4 C26.75 10.38, 40.91 8.7, 51.73 6.24 C62.55 3.78, 73.34 0.45, 85.05 0.65 C96.76 0.85, 110.57 3.47, 122 7.43 C133.42 11.4, 147.2 18.18, 153.6 24.44 C160.01 30.69, 159.8 38.76, 160.4 44.98 C161.01 51.21, 161.93 55.93, 157.23 61.79 C152.53 67.64, 142.46 76.09, 132.2 80.13 C121.95 84.17, 108.82 84.51, 95.71 86.03 C82.6 87.54, 65.42 91.45, 53.53 89.23 C41.64 87.01, 33.26 77.81, 24.37 72.73 C15.49 67.65, 4.28 65.33, 0.23 58.77 C-3.82 52.2, -3.09 40.24, 0.07 33.33 C3.23 26.41, 16.09 20.21, 19.22 17.27 C22.34 14.32, 18.17 15.71, 18.83 15.68" stroke="#2f9e44" stroke-width="1" fill="none"></path></g><g transform="translate(2681.86357952123 51.84735847472909) rotate(0 12.258000373840332 22.500000000000007)"><text x="12.258000373840332" y="0" font-family="Virgil, Segoe UI Emoji" font-size="36px" fill="#2f9e44" text-anchor="middle" style="white-space: pre;" direction="ltr" dominant-baseline="text-before-edge">3</text></g><g stroke-linecap="round" transform="translate(1442.1703118532753 15.856907665152278) rotate(0 81.26459385398925 44.65892094678688)"><path d="M14.71 19.41 C14.71 19.41, 14.71 19.41, 14.71 19.41 M14.71 19.41 C14.71 19.41, 14.71 19.41, 14.71 19.41 M-1.03 42.9 C8.37 37.52, 12.53 30.16, 26.7 15.81 M0.36 41.6 C7.79 34.57, 16.35 24.17, 23.42 13.91 M0.16 49.66 C8.32 34.33, 20.02 27, 33.06 13.3 M2.66 46.86 C13.9 32.68, 23.18 20.11, 32.62 10.16 M6.59 51.72 C9.82 41.31, 20.64 28.39, 42 3.97 M4.28 49.73 C18.95 35.68, 30.04 19.61, 42.52 6.52 M7.52 51.52 C11.33 49.19, 18.8 36.74, 44.15 10.6 M3.18 55.51 C12.69 44.78, 21.1 33.94, 44.83 10.11 M5.06 56.97 C17.86 46.14, 20.01 38.98, 53.75 10.92 M8.43 58.31 C20.69 42.17, 35.47 25.91, 48.74 7.81 M8.22 66.02 C26.34 47.9, 43.48 25.55, 54.36 5.67 M7.32 65.66 C21.61 47.73, 34.73 36.68, 57.63 8.3 M10.71 65.78 C31.39 46.8, 48.69 21.47, 59.92 5.41 M10.28 67.47 C27.6 47.41, 39.45 28.78, 63.25 8.73 M18.43 64.72 C34.54 50.97, 47.75 25.2, 68.72 6.6 M15.35 68.19 C38.53 45.14, 56.54 18.9, 66.72 4.79 M15.28 71.2 C37.48 52.81, 55.49 31.68, 74.09 7.51 M17.12 71.35 C39.29 43.7, 59.95 18.65, 74.26 6.58 M19.17 72.42 C36.63 52.37, 54.91 27.83, 77.63 4.62 M23.76 70.31 C36.32 56.29, 48.72 38.84, 81.55 4.88 M23.31 70.75 C47.51 53.78, 63.32 27.54, 86.55 5.44 M25.41 74.66 C42.64 56.5, 54.37 38.6, 88.07 3.98 M25.49 72.62 C50.48 56.07, 67.46 34.13, 93.6 2.44 M28.49 74.98 C44.68 60.71, 57.5 45.4, 92.11 5.46 M33.36 76.89 C54.88 53.59, 66.6 34.27, 99.67 8.37 M32.07 77.14 C54.81 50.46, 80.73 21.2, 98.46 3.53 M35.76 81.96 C51.11 55.71, 77.34 33.8, 99.14 1.18 M36.23 81.42 C54.87 61.75, 69.81 40.09, 102.79 3.87 M37.35 85.21 C57.5 60.4, 80.56 39.48, 103.14 6.63 M39.78 79.78 C55.95 64.86, 73.4 45.82, 107.97 6.14 M45.16 81.79 C71.64 56.19, 88.78 34.21, 110.83 0.9 M43.86 82.67 C60.71 61.43, 79.59 42.72, 110.46 4.54 M49.99 86.05 C70.4 62.07, 88.37 44.75, 114.06 4.25 M48.4 86.38 C70.92 56.28, 92.11 34.3, 117.95 5.45 M54.24 88.9 C69.4 72.01, 78.37 54.26, 124.02 8.37 M53.03 86.29 C70.22 63.03, 85.26 43.29, 123.15 4.67 M54 86.41 C81.98 56.76, 101.85 29.32, 127.05 5.73 M58.22 87.5 C77.78 62, 100.63 35.12, 124.65 8.73 M63.59 89 C77.68 71.37, 92.9 50.84, 129.44 11.77 M58.87 89.85 C79.58 69.58, 98.92 45.89, 130.71 10.99 M64.2 86.49 C86.83 66.18, 109.74 36.09, 133.96 9.97 M64.04 91 C89.86 62.34, 112.43 40.34, 132.96 12.68 M71.86 86.5 C96.37 63.49, 118.17 37.33, 135.18 14.48 M69.95 88.71 C86.42 71.27, 100.86 52.08, 136.71 11.48 M74.75 91.37 C103.73 63.11, 121.87 34.74, 139.43 12.54 M76.38 87.73 C89.87 72.33, 104.29 53.64, 142 15.83 M83.12 89.74 C97.04 76.96, 107.37 61.5, 147.42 15.31 M81.66 87.27 C97.69 69.32, 114.78 50.29, 145.26 17.7 M90.61 89.42 C110.26 64.03, 125.12 39.36, 150.85 15.49 M87.01 87.88 C107.62 69.14, 124.27 47.99, 149 18.22 M96.85 88.78 C117.8 61.87, 131.79 41.01, 147.1 23.27 M92.24 86.72 C104.13 74.12, 118.29 58.9, 151.6 21.46 M102.12 84.12 C112.28 77, 118.91 61.77, 156.38 25.57 M97.45 86.9 C110.32 72.49, 123.45 55.82, 153.42 25.72 M104.61 90.58 C117.67 68.58, 142.56 51.15, 157.84 29.55 M101.37 90.27 C119.26 70.48, 133.17 53.64, 156.08 28.87 M109 86.67 C126.42 65.1, 143.38 52.52, 156.79 28.65 M109.01 88 C127.99 65.27, 146.02 48.21, 158.68 30.42 M115.23 85.03 C129.9 75.67, 141.66 58.78, 162.66 34.77 M117.46 87.15 C124.73 77.42, 133.37 64.75, 158.85 33.55 M120.33 83.44 C132.97 67.91, 148.08 58.33, 162.99 42.35 M120.8 83.69 C133.61 68.23, 150.55 52.32, 159.79 41.21 M131.09 86.5 C138.72 72.55, 149.76 61.07, 161.32 40 M127.82 84.13 C140.07 68.43, 154.63 52.39, 163.22 41.66 M137.28 77.98 C144.53 71.5, 153.61 61.94, 164.01 51.46 M138.37 79.74 C143.17 72.81, 152.2 60.74, 161.26 53.31" stroke="#ffec99" stroke-width="0.5" fill="none"></path><path d="M78.9 1.93 C90.61 1.05, 104.72 0.74, 116.12 3.31 C127.52 5.89, 139.73 11.29, 147.31 17.37 C154.89 23.45, 160.14 32.99, 161.59 39.8 C163.04 46.61, 160.07 51.64, 156.02 58.23 C151.96 64.82, 146.53 74.71, 137.26 79.36 C127.99 84, 112.49 84.56, 100.38 86.1 C88.26 87.64, 76.24 90.15, 64.56 88.61 C52.89 87.07, 40.03 81.17, 30.34 76.85 C20.66 72.53, 11.68 68.93, 6.44 62.7 C1.2 56.48, -2.5 46.76, -1.1 39.52 C0.3 32.28, 7.81 24.61, 14.85 19.26 C21.88 13.92, 28.27 10.54, 41.11 7.46 C53.96 4.37, 80.69 1.66, 91.91 0.74 C103.13 -0.18, 108.22 1.21, 108.42 1.96 M19.3 16.84 C25.71 12, 38.94 7.75, 50.91 4.54 C62.89 1.33, 78.36 -3.05, 91.15 -2.44 C103.95 -1.82, 117.01 4.24, 127.68 8.25 C138.35 12.27, 148.9 15.48, 155.16 21.65 C161.43 27.81, 165.94 37.81, 165.29 45.25 C164.63 52.69, 157.74 60.8, 151.24 66.29 C144.74 71.78, 136.43 74.89, 126.31 78.19 C116.19 81.49, 102.67 84.94, 90.52 86.08 C78.37 87.22, 64.63 86.56, 53.41 85.04 C42.2 83.52, 31.3 82.16, 23.22 76.94 C15.13 71.72, 8.51 60.35, 4.92 53.71 C1.33 47.07, -0.82 43.87, 1.68 37.13 C4.18 30.38, 17.21 16.99, 19.92 13.24 C22.64 9.49, 17.09 13.48, 17.98 14.63" stroke="#f08c00" stroke-width="1" fill="none"></path></g><g transform="translate(1510.6561603379969 37.9372027699922) rotate(0 12.815999984741211 22.500000000000007)"><text x="12.815999984741211" y="0" font-family="Virgil, Segoe UI Emoji" font-size="36px" fill="#f08c00" text-anchor="middle" style="white-space: pre;" direction="ltr" dominant-baseline="text-before-edge">2</text></g><g stroke-linecap="round" transform="translate(163.9002139337682 10) rotate(0 81.26459385398925 44.65892094678688)"><path d="M1.98 33.52 C1.98 33.52, 1.98 33.52, 1.98 33.52 M1.98 33.52 C1.98 33.52, 1.98 33.52, 1.98 33.52 M4.87 42.07 C8.88 27.78, 16.16 22.33, 25.84 13.1 M4.15 40.16 C9.88 31.5, 16.42 20.76, 24.01 15.9 M3.08 46.55 C9.6 40.68, 20.79 32.68, 31.89 10.03 M2.49 42.91 C11.93 34.84, 21.63 22.07, 30.7 14.07 M-0.02 50.1 C9.91 38.38, 16.89 34.62, 42.08 7.51 M2.45 48.19 C16.56 34.27, 30.75 19.26, 37.35 11.23 M3.34 57.14 C15.85 42.06, 27.17 25.76, 51.58 2.06 M4.3 56.27 C14.91 45.27, 25.59 33.1, 51.62 4.38 M7.58 59.56 C17.38 50.25, 27.93 31.19, 54.17 5.95 M8.84 57.87 C22.22 43.55, 38.13 26.24, 55.07 2.79 M13.95 63.65 C28.92 41.35, 50.55 14.99, 61.12 -1.9 M9.48 60.16 C29.19 37.6, 50.62 13.73, 60.06 -0.06 M13.07 64.47 C34.68 43.81, 49.47 21.57, 67.65 -1.19 M12.82 62.12 C28.51 48.03, 42.81 30.33, 68.02 -0.6 M12.36 64.43 C29.4 49.07, 49.88 28.17, 74.11 -2.31 M13.9 68.26 C36.93 39.1, 59.05 16.3, 72.72 -0.31 M14.79 69.22 C36.99 49.1, 61.71 19.38, 81.45 4.18 M16.96 69.57 C37.38 45.96, 57.46 24.86, 79.53 0 M19.51 76.37 C35.31 53.83, 52.93 37.77, 82.54 -1.74 M20.01 71.18 C39.67 51.94, 60.28 29.89, 82.78 -0.15 M23.98 79.97 C42.48 54.13, 59.63 37.73, 89.56 -2.99 M22.84 74.08 C47.87 49.49, 72.7 21.73, 89.05 0.79 M25.93 73.67 C52.9 46.28, 75.64 17.48, 92.05 -1.21 M28.96 77.24 C51.75 50.66, 75.24 22.8, 93.16 -0.39 M29.48 75.94 C55.08 51.11, 81.78 26.95, 96.25 5.32 M29.67 79.93 C54.45 54.19, 76.08 27.53, 97.45 1.47 M33.12 82.83 C47.68 62.95, 61.71 48.63, 105.17 0.08 M35.96 81.5 C62.06 51.64, 86.46 26.36, 101.77 3.38 M41.77 78.43 C63.35 51.04, 90.6 20.32, 104.65 0.43 M40.47 80.92 C62.94 55.78, 83.86 28.34, 109.53 5.4 M44.19 87.69 C64.68 58.52, 97.73 24.86, 114.71 3.73 M42.91 84.71 C67.09 55.05, 92.15 25.62, 112.9 5.79 M48.28 82.56 C67.06 63.36, 89.73 34.96, 118.24 8.98 M47.24 86.07 C73.26 56.34, 100.25 29.29, 117.54 5.71 M50.5 82.88 C80.94 59.96, 102.17 30.76, 117.74 5.9 M51.07 84.88 C69.76 64.91, 87.52 43.61, 121.19 7.42 M57.3 85.24 C75.1 57.83, 98.06 29.95, 128.04 4.65 M52.98 89.59 C70.24 72.78, 84.35 53.72, 126.37 6.97 M62.35 90.85 C75.45 70.63, 90.23 52.3, 130.98 6.59 M61.73 88.19 C77.26 67.83, 93.16 50.67, 129 10.1 M68.76 90.69 C91.76 61.07, 111.65 36.95, 133.44 8.49 M64.4 90.39 C81.26 65.31, 103.74 44.51, 132.36 11.49 M69.64 89.61 C89.73 67.37, 103.55 49, 136.06 15.59 M70.87 86.82 C98.31 58.25, 121.15 31.8, 137.73 12.86 M72.91 88.47 C102.07 63.35, 118.83 37.04, 140.66 16.8 M76.61 88.16 C88.98 72.05, 104.52 54.37, 139.77 17.27 M77.26 89.5 C100.13 68.35, 114.94 47.13, 138.86 17.25 M82.55 89.67 C94.62 70.68, 107.05 55.09, 141.09 18.7 M85.56 89.18 C102.77 68.66, 114.26 55.56, 142.22 22.98 M86.42 89.03 C103.4 71.09, 120.38 50.14, 146.3 21.81 M90.29 91.14 C110.11 74.66, 120.56 58.06, 146.87 25.49 M92.13 90.35 C111.3 65.43, 131.61 41.94, 148.54 23.58 M91.49 93.76 C117.26 71.3, 137.61 46.09, 156.27 25.7 M93.67 88.84 C117.72 69.62, 138.43 44.66, 152.29 24.3 M104.8 87.5 C120.38 69.57, 138.47 48.46, 157.9 31.04 M103.03 87.19 C116.4 72.33, 132.91 55.82, 155.89 29.71 M106.97 85.39 C121.47 75.1, 130.34 61.29, 153.27 31.02 M109.76 87.12 C123.91 66.58, 142.92 48.84, 157.56 33.69 M117.08 85.81 C132.97 69.52, 147.22 47.08, 155.99 37.45 M114.01 87.23 C130.12 66.49, 145.15 49.58, 159.34 35.48 M124.02 88.16 C138.73 65.07, 148.12 52.81, 159.84 42.74 M120 83.69 C138.88 65.55, 151.04 47.07, 163.16 41.1 M129.07 79.16 C137.08 74.45, 149.78 66.03, 167.43 44.57 M130.54 79.72 C144.81 66.66, 155.33 51.58, 165.38 41.03 M146.07 71.85 C149.65 64.55, 151.78 61.62, 164.94 45.75 M141.16 73.49 C150.47 66.57, 155.43 59.1, 167.54 45.15" stroke="#ffc9c9" stroke-width="0.5" fill="none"></path><path d="M126.33 6.71 C136.97 9.78, 146.55 17.94, 152.91 24.25 C159.26 30.56, 164.38 37.77, 164.46 44.58 C164.54 51.39, 159.11 59.19, 153.4 65.11 C147.69 71.02, 140.26 76.15, 130.22 80.06 C120.17 83.96, 105.69 87.15, 93.12 88.52 C80.55 89.89, 66.55 90.5, 54.8 88.25 C43.05 86, 30.98 80.48, 22.61 75.03 C14.25 69.58, 8.07 62.43, 4.61 55.53 C1.16 48.63, -0.61 40.49, 1.88 33.63 C4.38 26.77, 11.75 19.68, 19.6 14.38 C27.45 9.08, 37.54 4.4, 49 1.83 C60.46 -0.74, 72.32 -3.23, 88.36 -1.06 C104.4 1.11, 133.85 10.31, 145.24 14.85 C156.64 19.4, 157.8 25.58, 156.71 26.21 M69.56 1.49 C81.65 -0.54, 96.43 -0.54, 107.88 1.12 C119.34 2.78, 129.47 5.9, 138.31 11.42 C147.14 16.95, 157.43 27.3, 160.89 34.29 C164.35 41.29, 161.88 46.73, 159.06 53.4 C156.25 60.06, 151.99 69.25, 144.01 74.27 C136.03 79.28, 122.38 81.07, 111.19 83.5 C99.99 85.93, 88.9 88.76, 76.82 88.86 C64.75 88.95, 49.59 88.19, 38.71 84.04 C27.84 79.89, 18.11 69.89, 11.59 63.97 C5.06 58.04, 0.14 55.03, -0.41 48.49 C-0.96 41.94, 3.13 30.78, 8.28 24.68 C13.43 18.58, 20.85 16.38, 30.49 11.87 C40.12 7.35, 59.3 -0.76, 66.1 -2.4 C72.9 -4.04, 70.3 0.93, 71.29 2.01" stroke="#e03131" stroke-width="1" fill="none"></path></g><g transform="translate(240.32406262066877 32.08029510483992) rotate(0 4.877999782562256 22.500000000000007)"><text x="4.877999782562256" y="0" font-family="Virgil, Segoe UI Emoji" font-size="36px" fill="#e03131" text-anchor="middle" style="white-space: pre;" direction="ltr" dominant-baseline="text-before-edge">1</text></g></svg>